<?xml version="1.0" encoding="UTF-8"?>
<svg id="Calque_2" data-name="Calque 2" xmlns="http://www.w3.org/2000/svg" xmlns:xlink="http://www.w3.org/1999/xlink" viewBox="0 0 295.54 255.12">
  <defs>
    <style>
      .cls-1 {
        fill: url(#linear-gradient);
      }

      .cls-2 {
        fill: url(#linear-gradient-2);
      }
    </style>
    <linearGradient id="linear-gradient" x1="0" y1="127.56" x2="232.91" y2="127.56" gradientUnits="userSpaceOnUse">
      <stop offset=".15" stop-color="#29abe2"/>
      <stop offset="1" stop-color="aqua"/>
    </linearGradient>
    <linearGradient id="linear-gradient-2" x1="190.51" y1="144.89" x2="239.77" y2="61.93" gradientUnits="userSpaceOnUse">
      <stop offset=".01" stop-color="#a82884"/>
      <stop offset="1" stop-color="#ff47ed"/>
    </linearGradient>
  </defs>
  <g id="Layer_1" data-name="Layer 1">
    <g>
      <path class="cls-1" d="M158.92,148.16h0C127.77,98.01,80.39,22.01,80.39,22.01c0,0,0,0,0-.01C68.83,1.3,42.69-6.1,21.99,5.46,1.3,17.01-6.1,43.15,5.46,63.84L110.22,233.11s0,0,0,.01c16.61,29.74,58.93,28.9,75.07,0,0,0,0,0,0-.01l47.6-76.91c-44.02,39.81-74-8.04-74-8.04Z"/>
      <path class="cls-2" d="M290.08,63.84c11.55-20.69,4.15-46.83-16.54-58.39-20.69-11.56-46.83-4.15-58.39,16.54,0,0,0,0,0,.01,0,0-37.23,59.72-67.38,108.22,3.86,6.21,7.61,12.25,11.15,17.94,0,0,29.98,47.85,74,8.04l57.17-92.36Z"/>
    </g>
  </g>
</svg>